<svg width="57" height="57" viewBox="0 0 57 57" fill="none" xmlns="http://www.w3.org/2000/svg">
<g clip-path="url(#clip0_49_47420)" filter="url(#filter0_d_49_47420)">
<path d="M18.0022 44.328V38.614C17.4062 32.66 10.3662 29.472 10.3662 20.328C10.3662 11.188 15.8202 4.21599 26.7302 4.32799C34.5842 4.41199 42.0022 8.89999 42.0022 18.044L46.3662 24.9C46.3662 29.472 42.0022 29.472 42.0022 29.472C42.0022 29.472 43.0942 40.9 33.2742 40.9V44.328" stroke="#19A7CE" stroke-width="1.5" stroke-linecap="round" stroke-linejoin="round"/>
<path d="M26.3662 24.3281C27.4271 24.3281 28.4445 23.9067 29.1946 23.1566C29.9448 22.4064 30.3662 21.389 30.3662 20.3281C30.3662 19.2673 29.9448 18.2498 29.1946 17.4997C28.4445 16.7496 27.4271 16.3281 26.3662 16.3281C25.3053 16.3281 24.2879 16.7496 23.5378 17.4997C22.7876 18.2498 22.3662 19.2673 22.3662 20.3281C22.3662 21.389 22.7876 22.4064 23.5378 23.1566C24.2879 23.9067 25.3053 24.3281 26.3662 24.3281Z" stroke="#19A7CE" stroke-width="1.5" stroke-linecap="round" stroke-linejoin="round"/>
<path d="M26.3662 26.3281C27.9575 26.3281 29.4836 25.696 30.6089 24.5708C31.7341 23.4455 32.3662 21.9194 32.3662 20.3281C32.3662 18.7368 31.7341 17.2107 30.6089 16.0855C29.4836 14.9603 27.9575 14.3281 26.3662 14.3281C24.7749 14.3281 23.2488 14.9603 22.1236 16.0855C20.9984 17.2107 20.3662 18.7368 20.3662 20.3281C20.3662 21.9194 20.9984 23.4455 22.1236 24.5708C23.2488 25.696 24.7749 26.3281 26.3662 26.3281Z" stroke="#19A7CE" stroke-width="1.5" stroke-linecap="round" stroke-linejoin="round"/>
</g>
<defs>
<filter id="filter0_d_49_47420" x="0.366211" y="0.328125" width="56" height="56" filterUnits="userSpaceOnUse" color-interpolation-filters="sRGB">
<feFlood flood-opacity="0" result="BackgroundImageFix"/>
<feColorMatrix in="SourceAlpha" type="matrix" values="0 0 0 0 0 0 0 0 0 0 0 0 0 0 0 0 0 0 127 0" result="hardAlpha"/>
<feOffset dy="4"/>
<feGaussianBlur stdDeviation="2"/>
<feComposite in2="hardAlpha" operator="out"/>
<feColorMatrix type="matrix" values="0 0 0 0 0 0 0 0 0 0 0 0 0 0 0 0 0 0 0.25 0"/>
<feBlend mode="normal" in2="BackgroundImageFix" result="effect1_dropShadow_49_47420"/>
<feBlend mode="normal" in="SourceGraphic" in2="effect1_dropShadow_49_47420" result="shape"/>
</filter>
<clipPath id="clip0_49_47420">
<rect width="48" height="48" fill="white" transform="translate(4.36621 0.328125)"/>
</clipPath>
</defs>
</svg>
