<svg width="48" height="48" viewBox="0 0 48 48" fill="none" xmlns="http://www.w3.org/2000/svg">
<path d="M44.9996 16.0201L41.9996 7.02009C41.8952 6.70962 41.6921 6.44184 41.4213 6.25766C41.1504 6.07348 40.8267 5.98301 40.4996 6.00009H7.49961C7.17251 5.98301 6.84881 6.07348 6.57796 6.25766C6.3071 6.44184 6.10398 6.70962 5.99961 7.02009L2.99961 16.0201C2.978 16.1794 2.978 16.3408 2.99961 16.5001V25.5001C2.99961 25.8979 3.15764 26.2794 3.43895 26.5607C3.72025 26.8421 4.10178 27.0001 4.49961 27.0001H5.99961V42.0001H8.99961V27.0001H17.9996V42.0001H41.9996V27.0001H43.4996C43.8974 27.0001 44.279 26.8421 44.5603 26.5607C44.8416 26.2794 44.9996 25.8979 44.9996 25.5001V16.5001C45.0212 16.3408 45.0212 16.1794 44.9996 16.0201ZM38.9996 39.0001H20.9996V27.0001H38.9996V39.0001ZM41.9996 24.0001H35.9996V18.0001H32.9996V24.0001H25.4996V18.0001H22.4996V24.0001H14.9996V18.0001H11.9996V24.0001H5.99961V16.7401L8.57961 9.00009H39.4196L41.9996 16.7401V24.0001Z" fill="#19A7CE"/>
</svg>
