<svg width="47" height="49" viewBox="0 0 47 49" fill="none" xmlns="http://www.w3.org/2000/svg">
<g clip-path="url(#clip0_49_47403)">
<path d="M29.8877 0.72998L46.3877 8.97998V27.3784L43.3877 25.8784V12.3315L31.3877 18.3315V24.3784L28.3877 25.8784V18.3315L16.3877 12.3315V17.6519L13.3877 16.1519V8.97998L29.8877 0.72998ZM29.8877 15.73L34.0361 13.644L23.1846 7.43311L18.2393 9.91748L29.8877 15.73ZM37.2705 12.0503L41.5361 9.91748L29.8877 4.08154L26.3955 5.83936L37.2705 12.0503ZM25.3877 27.3784L22.3877 28.8784V28.855L13.3877 33.355V44.019L22.3877 39.4956V42.8706L11.8877 48.1206L-1.6123 41.3472V25.5034L11.8877 18.7534L25.3877 25.5034V27.3784ZM10.3877 44.019V33.355L1.3877 28.855V39.4956L10.3877 44.019ZM11.8877 30.7534L20.5361 26.4409L11.8877 22.105L3.23926 26.4409L11.8877 30.7534ZM25.3877 30.73L35.8877 25.48L46.3877 30.73V43.0815L35.8877 48.3315L25.3877 43.0815V30.73ZM34.3877 44.23V37.0815L28.3877 34.0815V41.23L34.3877 44.23ZM43.3877 41.23V34.0815L37.3877 37.0815V44.23L43.3877 41.23ZM35.8877 34.48L41.5361 31.644L35.8877 28.8315L30.2393 31.644L35.8877 34.48Z" fill="#19A7CE"/>
</g>
<defs>
<clipPath id="clip0_49_47403">
<rect width="48" height="48" fill="white" transform="translate(-1.6123 0.683105)"/>
</clipPath>
</defs>
</svg>
